<svg width="72" height="18" viewBox="0 0 72 18" fill="none" xmlns="http://www.w3.org/2000/svg">
<path d="M10.032 3.62398V0.45598H6.55651e-07V17.256H3.312V10.776H9.84V7.60798H3.312V3.62398H10.032ZM20.2213 5.25598V11.736C20.2213 13.824 19.0933 14.712 17.5813 14.712C16.1893 14.712 15.2053 13.872 15.2053 12.24V5.25598H12.1093V12.624C12.1093 15.816 14.1013 17.592 16.6453 17.592C18.2533 17.592 19.5013 16.992 20.2213 15.912V17.256H23.3173V5.25598H20.2213ZM32.8249 4.91998C31.2169 4.91998 29.9689 5.51998 29.2489 6.59998V5.25598H26.1529V17.256H29.2489V10.776C29.2489 8.68798 30.3769 7.79998 31.8889 7.79998C33.2809 7.79998 34.2649 8.63998 34.2649 10.272V17.256H37.3609V9.88798C37.3609 6.69598 35.3689 4.91998 32.8249 4.91998ZM41.5404 3.81598C42.5964 3.81598 43.4604 2.95198 43.4604 1.91998C43.4604 0.88798 42.5964 -1.95503e-05 41.5404 -1.95503e-05C40.5084 -1.95503e-05 39.6444 0.88798 39.6444 1.91998C39.6444 2.95198 40.5084 3.81598 41.5404 3.81598ZM40.0044 17.256H43.1004V5.25598H40.0044V17.256ZM49.0301 7.31998V5.25598H45.9341V17.256H49.0301V11.52C49.0301 8.99998 51.0701 8.27998 52.6781 8.47198V5.01598C51.1661 5.01598 49.6541 5.68798 49.0301 7.31998ZM59.7555 17.592C63.2835 17.592 66.1155 14.832 66.1155 11.256C66.1155 7.67998 63.2835 4.91998 59.7555 4.91998C56.2275 4.91998 53.4195 7.67998 53.4195 11.256C53.4195 14.832 56.2275 17.592 59.7555 17.592ZM59.7555 14.568C57.9315 14.568 56.5155 13.2 56.5155 11.256C56.5155 9.31198 57.9315 7.94398 59.7555 7.94398C61.6035 7.94398 63.0195 9.31198 63.0195 11.256C63.0195 13.2 61.6035 14.568 59.7555 14.568ZM69.1326 17.568C70.2606 17.568 71.1726 16.656 71.1726 15.528C71.1726 14.4 70.2606 13.488 69.1326 13.488C68.0046 13.488 67.0926 14.4 67.0926 15.528C67.0926 16.656 68.0046 17.568 69.1326 17.568Z" fill="black"/>
</svg>
